<?xml version="1.0" encoding="UTF-8"?>
<svg id="Layer_2" data-name="Layer 2" xmlns="http://www.w3.org/2000/svg" viewBox="0 0 735.35 164.46">
  <defs>
    <style>
      .cls-1 {
        fill: #f3d03f;
      }

      .cls-2 {
        fill: #fff;
      }
    </style>
  </defs>
  <g id="svg2">
    <g id="g8">
      <g id="g10">
        <path id="path12" class="cls-2" d="M321.81,84.68c.73,0,1.38-.05,1.38-.94,0-.69-.64-.81-1.23-.81h-1.18v1.76h1.03Zm-1.03,3.18h-.85v-5.67h2.16c1.33,0,1.99,.5,1.99,1.61,0,1.01-.63,1.46-1.46,1.56l1.61,2.5h-.96l-1.49-2.46h-1v2.46Zm1.04,1.26c2.23,0,3.98-1.73,3.98-4.1s-1.75-4.09-3.98-4.09-4,1.76-4,4.09,1.75,4.1,4,4.1m-4.98-4.1c0-2.83,2.29-4.9,4.98-4.9s4.98,2.07,4.98,4.9-2.29,4.91-4.98,4.91-4.98-2.07-4.98-4.91"/>
        <path id="path14" class="cls-2" d="M56.38,126.63v-59.03h-16.15v73.1h41.14v-14.07"/>
        <path id="path16" class="cls-2" d="M218.94,140.69h38.44v-14.08h-22.2v-9.18h22.2v-13.54h-22.2v-9.22h22.2v-14.14h-38.44v.06"/>
        <path id="path18" class="cls-2" d="M118.27,94.67h-14.2v31.9h14.2v-31.9Zm16.18,38.34c0,4.25-3.44,7.69-7.68,7.69h-31.2c-4.24,0-7.68-3.44-7.68-7.69v-44.79c0-4.25,3.44-7.69,7.68-7.69h31.2c4.25,0,7.68,3.45,7.68,7.69"/>
        <path id="path20" class="cls-2" d="M193.53,80.52v46.1h-9.76v-46.1h-14.2v46.1h-9.75v-46.1h-16.19v52.48c0,4.25,3.45,7.69,7.69,7.69h19.12c3.22,0,6.22-2.22,6.22-5.44,0,3.22,3.01,5.44,6.23,5.44h19.12c4.25,0,7.69-3.43,7.69-7.69v-52.48"/>
        <path id="path22" class="cls-2" d="M314.09,117.95h0s-.1-.21-.1-.21c-.06-.12-.12-.25-.19-.37l-.1-.2c-2.56-5.13-8.29-9.42-17.51-13.11l-.33-.13c-1.82-.71-7.39-2.89-8-6.42-.17-.99,.23-2.55,1.33-3.49,1.17-1.18,2.94-1.79,5.3-1.79,3.76,0,8.04,1.54,10.25,2.45,4.67,1.94,8.75,3.67,8.8,3.68l.41,.18v-13.13l-.14-.09c-.09-.06-8.91-5.62-17.83-6.9-1.02-.09-2.04-.13-3.01-.13-8.21,0-14.42,2.99-18.47,8.86-3.4,4.83-3.77,12.47-.88,18.18,3.72,6.45,9.67,9.14,15.44,11.75,2.37,1.07,4.83,2.19,7.13,3.55l.03,.02c2.6,1.56,3.92,3.95,3.37,6.08-.56,2.19-3.08,3.68-6.27,3.68-.44,0-.88-.03-1.3-.08l-.15-.02c-6.12-.86-18.53-5.48-18.66-5.52l-.39-.15v14.41l.2,.06c.11,.04,12.13,4.02,22.8,4.02,5.82,0,10.22-1.18,13.05-3.49,.07-.05,6.59-5.29,6.88-14.2,.08-2.47-.48-4.99-1.66-7.5"/>
        <path id="path24" class="cls-1" d="M310.14,162.21l2.01-7.5h-18.13l-2.01,7.5h18.13Z"/>
        <path id="path26" class="cls-1" d="M273.79,162.21l2.01-7.5h-18.13l-2.01,7.5h18.13Z"/>
        <path id="path28" class="cls-1" d="M324.81,55.03v-15.94h-56.89L176.67,0,85.43,39.09H28.51v15.94H0v107.18H237.45l2.01-7.5H7.5V62.54h28.52v-15.94h51.1L176.75,8.17l89.64,38.43h50.91v15.94h28.51v92.17h-15.44l-2.01,7.5h24.96V55.03"/>
        <path id="path30" class="cls-2" d="M260.95,67.59v17.32s11.2,.02,11.2,.02l2.33-17.34h-13.53Z"/>
        <path id="path32" class="cls-2" d="M430,95.83c10.35,0,15.69-4.66,15.69-13.8v-.69c0-9.49-5.35-13.28-15.52-13.28h-8.28v27.77h8.11Zm-47.08-56.91h49.15c35.53,0,50.7,15.87,50.7,42.25v.69c0,25.69-17.07,40.18-48.97,40.18h-11.9v40.18h-38.97"/>
        <path id="path34" class="cls-2" d="M540.93,94.79c10.86,0,16.04-4.49,16.04-13.45v-.69c0-8.97-5.35-12.42-15.87-12.42h-9.31v26.56h9.14Zm-48.11-55.87h50.36c33.97,0,51.56,13.62,51.56,40.01v.69c0,17.07-8.62,26.73-20.87,32.25l28.11,50.36h-41.05l-22.94-42.25h-6.21v42.25h-38.97"/>
        <path id="path36" class="cls-2" d="M694.65,101.17v-1.38c0-20.87-10-32.25-25.52-32.25s-25.01,11.21-25.01,32.25v1.38c0,21.04,9.83,32.59,25.35,32.59s25.18-12.07,25.18-32.59m-91.4,.17v-1.38c0-38.11,28.97-62.95,65.88-62.95s66.22,22.94,66.22,61.91v1.38c0,38.46-26.39,64.15-66.91,64.15s-65.19-25.69-65.19-63.12"/>
      </g>
    </g>
  </g>
</svg>